<?xml version="1.0" encoding="UTF-8" standalone="no"?>
<!-- Created with Inkscape (http://www.inkscape.org/) -->

<svg
   width="512"
   height="512"
   viewBox="0 0 135.46666 135.46667"
   version="1.1"
   id="svg5"
   inkscape:version="1.4 (e7c3feb1, 2024-10-09)"
   sodipodi:docname="logo_raccoon_3_border.svg"
   xmlns:inkscape="http://www.inkscape.org/namespaces/inkscape"
   xmlns:sodipodi="http://sodipodi.sourceforge.net/DTD/sodipodi-0.dtd"
   xmlns="http://www.w3.org/2000/svg"
   xmlns:svg="http://www.w3.org/2000/svg">
  <sodipodi:namedview
     id="namedview7"
     pagecolor="#ffffff"
     bordercolor="#000000"
     borderopacity="0.25"
     inkscape:showpageshadow="2"
     inkscape:pageopacity="0.0"
     inkscape:pagecheckerboard="true"
     inkscape:deskcolor="#d1d1d1"
     inkscape:document-units="px"
     showgrid="false"
     inkscape:zoom="1.0841146"
     inkscape:cx="313.15877"
     inkscape:cy="217.22796"
     inkscape:window-width="1680"
     inkscape:window-height="844"
     inkscape:window-x="48"
     inkscape:window-y="64"
     inkscape:window-maximized="0"
     inkscape:current-layer="layer1" />
  <defs
     id="defs2">
    <inkscape:path-effect
       effect="fillet_chamfer"
       id="path-effect4"
       is_visible="true"
       lpeversion="1"
       nodesatellites_param="F,0,0,1,0,0,0,1 @ F,0,0,1,0,13.652445,0,1 @ F,0,0,1,0,19.353543,0,1 @ F,0,0,1,0,0,0,1 @ F,0,0,1,0,0,0,1"
       radius="0"
       unit="px"
       method="auto"
       mode="F"
       chamfer_steps="1"
       flexible="false"
       use_knot_distance="true"
       apply_no_radius="true"
       apply_with_radius="true"
       only_selected="false"
       hide_knots="false" />
    <inkscape:path-effect
       effect="fillet_chamfer"
       id="path-effect3"
       is_visible="true"
       lpeversion="1"
       nodesatellites_param="F,0,0,1,0,0,0,1 @ F,0,0,1,0,14.146766,0,1 @ F,0,0,1,0,0,0,1 @ F,0,0,1,0,0,0,1 @ F,0,0,1,0,0,0,1"
       radius="0"
       unit="px"
       method="auto"
       mode="F"
       chamfer_steps="1"
       flexible="false"
       use_knot_distance="true"
       apply_no_radius="true"
       apply_with_radius="true"
       only_selected="false"
       hide_knots="false" />
    <inkscape:path-effect
       effect="fillet_chamfer"
       id="path-effect4-7"
       is_visible="true"
       lpeversion="1"
       nodesatellites_param="F,0,0,1,0,0,0,1 @ F,0,0,1,0,8.3220281,0,1 @ F,0,0,1,0,8.3971985,0,1 @ F,0,0,1,0,0,0,1"
       radius="0"
       unit="px"
       method="auto"
       mode="F"
       chamfer_steps="1"
       flexible="false"
       use_knot_distance="true"
       apply_no_radius="true"
       apply_with_radius="true"
       only_selected="false"
       hide_knots="false" />
  </defs>
  <g
     inkscape:label="Livello 1"
     inkscape:groupmode="layer"
     id="layer1">
    <path
       style="fill:#ffffff;stroke-width:2.69696"
       d="M 0.03445653,29.515231 C 0.84919407,22.246692 2.8801421,14.511735 19.164491,11.238655 18.820556,10.930339 30.31553,5.7372603 65.840285,41.762306 l 0.251248,55.065533 c -4.710799,-0.58352 -8.938037,0.01578 -12.311231,2.704112 -1.417686,6.303659 2.480016,7.406629 4.773743,10.078969 l 7.788739,3.44159 -0.502499,3.19576 L 37.197824,109.85674 0.04165144,123.8583 -1.1858172,121.88636 35.941575,108.13594 0.01287187,113.05251 -0.23837778,110.59421 33.680328,106.16931 0.26412152,103.21937 -0.23837778,100.7611 33.429078,103.46521 24.681385,91.284119 C 21.270419,86.213732 49.566613,91.125723 62.129095,89.732697 62.959283,74.993445 63.401176,66.570499 61.797267,50.357593 53.246258,44.027366 35.476932,29.911593 15.528164,34.958483 -4.4078865,46.814587 7.1247319,72.463639 0.26412152,73.346416 Z"
       id="path1"
       sodipodi:nodetypes="cccccccccccccccccccccccc" />
    <path
       style="fill:#ffffff;stroke-width:2.74198"
       id="path2"
       sodipodi:arc-type="slice"
       sodipodi:type="arc"
       sodipodi:cx="44.839172"
       sodipodi:cy="59.753147"
       sodipodi:rx="6.346765"
       sodipodi:ry="9.1891098"
       sodipodi:start="6.0146496"
       sodipodi:end="5.7536193"
       d="m 50.958472,57.315093 a 6.346765,9.1891098 0 0 1 -4.039913,11.119983 6.346765,9.1891098 0 0 1 -7.927488,-5.111556 6.346765,9.1891098 0 0 1 3.005991,-11.786645 6.346765,9.1891098 0 0 1 8.319536,3.574312 l -5.477426,4.64196 z" />
    <path
       style="fill:#ffffff;stroke-width:2.69696"
       d="M 134.95395,29.687789 C 134.13921,22.41925 132.10826,14.684293 115.82391,11.411213 116.16784,11.102897 104.67287,5.9098188 69.148114,41.934864 l -0.25125,55.065533 c 4.710803,-0.58352 8.938041,0.01578 12.311235,2.704113 1.417686,6.30366 -2.480016,7.40663 -4.773743,10.07897 l -7.788742,3.44158 0.5025,3.19576 28.642463,-6.39152 37.156173,14.00155 1.22747,-1.97194 -37.127394,-13.75041 35.928704,4.91656 0.25125,-2.45829 -33.91871,-4.4249 33.41621,-2.94994 0.5025,-2.45827 -33.66746,2.70411 8.7477,-12.181093 C 113.71798,86.38629 85.421788,91.298281 72.859306,89.905255 72.029118,75.166003 71.587224,66.743057 73.191134,50.530151 c 8.551009,-6.330227 26.320335,-20.446 46.269106,-15.39911 19.93605,11.856104 8.40343,37.505156 15.26404,38.387933 z"
       id="path1-5"
       sodipodi:nodetypes="cccccccccccccccccccccccc" />
    <path
       style="fill:#ffffff;stroke-width:2.74198"
       id="path2-4"
       sodipodi:arc-type="slice"
       sodipodi:type="arc"
       sodipodi:cx="90.149231"
       sodipodi:cy="59.925705"
       sodipodi:rx="6.346765"
       sodipodi:ry="9.1891098"
       sodipodi:start="6.0146496"
       sodipodi:end="5.7536193"
       d="m 96.268531,57.487651 a 6.346765,9.1891098 0 0 1 -4.039914,11.119983 6.346765,9.1891098 0 0 1 -7.927487,-5.111556 6.346765,9.1891098 0 0 1 3.005991,-11.786645 6.346765,9.1891098 0 0 1 8.319536,3.574312 l -5.477426,4.64196 z" />
    <path
       style="fill:none;stroke:#ffffff;stroke-width:2.64583;stroke-dasharray:none;stroke-opacity:1"
       d="m 1.2202738,42.953639 0,-28.08092 A 13.577638,13.577638 135.1574 0 1 14.872513,1.2952861 L 115.12092,1.8461016 a 19.025384,19.025384 45.804704 0 1 18.91599,19.4549394 l -0.53896,23.849091 -1.22027,27.334133"
       id="path3"
       sodipodi:nodetypes="ccccc"
       inkscape:path-effect="#path-effect4"
       inkscape:original-d="m 1.2202738,42.953639 0,-41.7333652 133.2538962,0.7321643 -0.97622,43.1976939 -1.22027,27.334133" />
    <path
       style="fill:none;stroke:#ffffff;stroke-width:2.64583;stroke-dasharray:none;stroke-opacity:1"
       d="M 1.4232714,11.71463 1.3812209,9.5407454 A 8.2075865,8.2075865 134.28851 0 1 9.5421763,1.1745491 L 126.0771,0.53424729 a 8.3511868,8.3511868 44.842596 0 1 8.39707,8.35106071 v 2.585266"
       id="path3-9"
       sodipodi:nodetypes="cccc"
       inkscape:path-effect="#path-effect4-7"
       inkscape:original-d="M 1.4232714,11.71463 1.2202738,1.2202738 134.47417,0.48810953 V 11.470574"
       transform="matrix(1,0,0,-1,-0.18853632,134.75922)" />
  </g>
</svg>
